<svg width="37" height="36" viewBox="0 0 37 36" fill="none" xmlns="http://www.w3.org/2000/svg">
<path d="M20.2358 2.28369C20.2358 1.26953 19.373 0.406738 18.3589 0.406738C17.3447 0.406738 16.4971 1.26953 16.4971 2.28369V5.20508C16.4971 6.21924 17.3447 7.06689 18.3589 7.06689C19.373 7.06689 20.2358 6.21924 20.2358 5.20508V2.28369ZM26.124 7.70264C25.4126 8.39893 25.4277 9.625 26.1543 10.3364C26.8506 11.0479 28.0767 11.0479 28.7881 10.3213L30.8467 8.24756C31.5581 7.53613 31.543 6.3252 30.8315 5.59863C30.1201 4.88721 28.9092 4.91748 28.1978 5.62891L26.124 7.70264ZM7.92969 10.3213C8.64111 11.0327 9.86719 11.0479 10.5635 10.3364C11.29 9.64014 11.29 8.39893 10.5938 7.70264L8.53516 5.62891C7.83887 4.91748 6.61279 4.88721 5.90137 5.59863C5.18994 6.31006 5.1748 7.53613 5.87109 8.23242L7.92969 10.3213ZM18.3589 26.4419C22.9453 26.4419 26.7295 22.6577 26.7295 18.0713C26.7295 13.4849 22.9453 9.70068 18.3589 9.70068C13.7725 9.70068 9.98828 13.4849 9.98828 18.0713C9.98828 22.6577 13.7725 26.4419 18.3589 26.4419ZM18.3589 22.7485C15.8008 22.7485 13.6665 20.6294 13.6665 18.0713C13.6665 15.5132 15.8008 13.3789 18.3589 13.3789C20.917 13.3789 23.0361 15.5132 23.0361 18.0713C23.0361 20.6294 20.917 22.7485 18.3589 22.7485ZM34.1465 19.9331C35.1606 19.9331 36.0234 19.0854 36.0234 18.0713C36.0234 17.0571 35.1606 16.1943 34.1465 16.1943H31.2402C30.2261 16.1943 29.3784 17.0571 29.3784 18.0713C29.3784 19.0854 30.2261 19.9331 31.2402 19.9331H34.1465ZM2.57129 16.1943C1.55713 16.1943 0.709473 17.0571 0.709473 18.0713C0.709473 19.0854 1.55713 19.9331 2.57129 19.9331H5.47754C6.4917 19.9331 7.35449 19.0854 7.35449 18.0713C7.35449 17.0571 6.4917 16.1943 5.47754 16.1943H2.57129ZM28.7578 25.8062C28.0615 25.1099 26.8506 25.1099 26.124 25.8364C25.4126 26.5479 25.4277 27.7437 26.1543 28.4702L28.228 30.5439C28.9243 31.2402 30.1504 31.2251 30.877 30.4985C31.5732 29.8022 31.5581 28.5913 30.8467 27.8799L28.7578 25.8062ZM5.88623 27.8647C5.15967 28.5762 5.14453 29.7871 5.84082 30.4985C6.56738 31.2251 7.79346 31.2402 8.48975 30.5288L10.5635 28.4702C11.29 27.7588 11.29 26.5479 10.5938 25.8364C9.88232 25.125 8.65625 25.1099 7.94482 25.8213L5.88623 27.8647ZM20.2358 30.9375C20.2358 29.9233 19.373 29.0757 18.3589 29.0757C17.3447 29.0757 16.4971 29.9233 16.4971 30.9375V33.8589C16.4971 34.873 17.3447 35.7358 18.3589 35.7358C19.373 35.7358 20.2358 34.873 20.2358 33.8589V30.9375Z" fill="#007AFF"/>
</svg>
